Coordinates
version=1
nRows=7
nColumns=40
inDegrees=yes

Units are S.I. units (second, meters, Newtons, ...)
If the header above contains a line with 'inDegrees', this indicates whether rotational values are in degrees (yes) or radians (no).

endheader
time	pelvis_tilt	pelvis_list	pelvis_rotation	pelvis_tx	pelvis_ty	pelvis_tz	hip_flexion_r	hip_adduction_r	hip_rotation_r	knee_angle_r	knee_angle_r_beta	ankle_angle_r	subtalar_angle_r	mtp_angle_r	hip_flexion_l	hip_adduction_l	hip_rotation_l	knee_angle_l	knee_angle_l_beta	ankle_angle_l	subtalar_angle_l	mtp_angle_l	lumbar_extension	lumbar_bending	lumbar_rotation	arm_flex_r	arm_add_r	arm_rot_r	elbow_flex_r	pro_sup_r	wrist_flex_r	wrist_dev_r	arm_flex_l	arm_add_l	arm_rot_l	elbow_flex_l	pro_sup_l	wrist_flex_l	wrist_dev_l
      0.00500000	     -1.28023551	      3.81752226	     -2.63413690	      0.22475021	      0.90307882	     -1.19639475	      2.67940329	    -25.32382726	    -34.76516708	      6.98849630	      0.12197227	     -7.07470545	     13.21312294	      0.00000000	      1.69097104	    -16.08470452	    -37.91724790	      6.62318471	      0.11559638	     -6.12452187	     19.08828850	      0.00000000	    -15.63122998	     -2.13812958	     -0.18269258	     44.18504113	    -16.51731696	     44.18504113	     75.07308201	     44.92079586	      0.00000000	      0.00000000	     44.18504113	    -16.51731696	     44.18504113	     75.07308201	     44.92079586	      0.00000000	      0.00000000
      0.01000000	     -1.27105264	      3.81623184	     -2.63804975	      0.22471539	      0.90310264	     -1.19637707	      2.65009063	    -25.29800442	    -34.70403607	      6.92725419	      0.12090339	     -7.12984762	     13.10708841	      0.00000000	      1.68497918	    -16.08766465	    -37.90412981	      6.62638564	      0.11565225	     -6.12794954	     19.09121033	      0.00000000	    -15.65311362	     -2.14348360	     -0.15111310	     44.21476085	    -16.43333509	     44.21476085	     75.06646589	     44.93366231	      0.00000000	      0.00000000	     44.21476085	    -16.43333509	     44.21476085	     75.06646589	     44.93366231	      0.00000000	      0.00000000
      0.01500000	     -1.21564617	      3.79377467	     -2.58215506	      0.22464976	      0.90320759	     -1.19644921	      2.59926441	    -25.30853273	    -34.88094038	      7.02567552	      0.12262117	     -7.13491995	     13.06235675	      0.00000000	      1.71400909	    -16.16898006	    -37.98599445	      6.80373543	      0.11874758	     -6.07560606	     19.15237570	      0.00000000	    -15.73259314	     -2.10532408	     -0.18371072	     44.21953333	    -16.41882291	     44.21953333	     75.06515525	     44.93699238	      0.00000000	      0.00000000	     44.21953333	    -16.41882291	     44.21953333	     75.06515525	     44.93699238	      0.00000000	      0.00000000
      0.02000000	     -1.29222053	      3.79230335	     -2.58949486	      0.22474446	      0.90308383	     -1.19643904	      2.64147756	    -25.27479085	    -34.79128102	      6.92698711	      0.12089873	     -7.11341771	     13.14960300	      0.00000000	      1.74607725	    -16.13746569	    -37.90995639	      6.68927910	      0.11674994	     -6.10850713	     19.14610188	      0.00000000	    -15.61965634	     -2.10249988	     -0.20421198	     44.21849890	    -16.41946650	     44.21849890	     75.06488460	     44.93877049	      0.00000000	      0.00000000	     44.21849890	    -16.41946650	     44.21849890	     75.06488460	     44.93877049	      0.00000000	      0.00000000
      0.02500000	     -1.29441091	      3.71107299	     -2.57131701	      0.22475321	      0.90307923	     -1.19645503	      2.61994362	    -25.17905504	    -34.82366616	      6.91004652	      0.12060306	     -7.11735339	     13.15872861	      0.00000000	      1.77724001	    -16.25982970	    -37.93344743	      6.77495253	      0.11824523	     -6.04077239	     19.21612759	      0.00000000	    -15.61440619	     -2.00308614	     -0.20836593	     44.24344811	    -16.35143694	     44.24344811	     75.05990690	     44.94680460	      0.00000000	      0.00000000	     44.24344811	    -16.35143694	     44.24344811	     75.05990690	     44.94680460	      0.00000000	      0.00000000
      0.03000000	     -1.29793377	      3.86475031	     -2.65337299	      0.22477942	      0.90305734	     -1.19628059	      2.71383339	    -25.36873060	    -34.72035021	      6.99390071	      0.12206659	     -7.06886169	     13.14834857	      0.00000000	      1.69331507	    -16.03017264	    -37.92817959	      6.59385149	      0.11508442	     -6.16878077	     19.08431388	      0.00000000	    -15.59233673	     -2.21447014	     -0.14217737	     44.27616070	    -16.26515961	     44.27616070	     75.05401393	     44.95479736	      0.00000000	      0.00000000	     44.27616070	    -16.26515961	     44.27616070	     75.05401393	     44.95479736	      0.00000000	      0.00000000
      0.03500000	     -1.31164817	      3.82854662	     -2.60063677	      0.22479760	      0.90302700	     -1.19637979	      2.71236467	    -25.35271076	    -34.85046047	      7.04302806	      0.12292403	     -7.03137982	     13.24272257	      0.00000000	      1.75039302	    -16.09525253	    -37.92458446	      6.66951080	      0.11640492	     -6.11346729	     19.15560722	      0.00000000	    -15.57310246	     -2.15317521	     -0.18380012	     44.30175538	    -16.19584672	     44.30175538	     75.04899136	     44.96276581	      0.00000000	      0.00000000	     44.30175538	    -16.19584672	     44.30175538	     75.04899136	     44.96276581	      0.00000000	      0.00000000
